<svg width="32" height="33" viewBox="0 0 32 33" fill="none" xmlns="http://www.w3.org/2000/svg">
<path fill-rule="evenodd" clip-rule="evenodd" d="M3.38644 18.7148C3.83984 18.7148 4.20739 19.0824 4.20739 19.5358L4.2074 30.8581H26.852V19.5358C26.852 19.0824 27.2195 18.7148 27.6729 18.7148C28.1263 18.7148 28.4939 19.0824 28.4939 19.5358V31.679C28.4939 32.1324 28.1263 32.5 27.6729 32.5H3.38645C2.93305 32.5 2.5655 32.1324 2.5655 31.679L2.56549 19.5358C2.56549 19.0824 2.93304 18.7148 3.38644 18.7148Z" fill="#161616"/>
<path fill-rule="evenodd" clip-rule="evenodd" d="M15.2912 0.740451C15.6118 0.41985 16.1316 0.41985 16.4522 0.740451L31.503 15.7912C31.7378 16.026 31.808 16.3791 31.681 16.6859C31.5539 16.9927 31.2545 17.1927 30.9225 17.1927H12.5879V27.4375H18.8135V20.2712H15.8717C15.4183 20.2712 15.0508 19.9037 15.0508 19.4503C15.0508 18.9969 15.4183 18.6293 15.8717 18.6293H19.6344C20.0878 18.6293 20.4554 18.9969 20.4554 19.4503V28.2584C20.4554 28.7118 20.0878 29.0794 19.6344 29.0794H11.767C11.3136 29.0794 10.946 28.7118 10.946 28.2584V16.3717C10.946 15.9183 11.3136 15.5508 11.767 15.5508H28.9405L15.8717 2.48195L1.40145 16.9522C1.08085 17.2728 0.561053 17.2728 0.240451 16.9522C-0.0801504 16.6316 -0.0801504 16.1118 0.240451 15.7912L15.2912 0.740451Z" fill="#161616"/>
</svg>
