<svg width="25" height="25" viewBox="0 0 25 25" fill="none" xmlns="http://www.w3.org/2000/svg">
<g clip-path="url(#clip0_1_150)">
<path d="M24.5 12.4805C24.5 5.85305 19.1274 0.480469 12.5 0.480469C5.87258 0.480469 0.5 5.85305 0.5 12.4805C0.5 18.4699 4.8882 23.4345 10.625 24.3347V15.9492H7.57812V12.4805H10.625V9.83672C10.625 6.82922 12.4166 5.16797 15.1576 5.16797C16.4701 5.16797 17.8438 5.40234 17.8438 5.40234V8.35547H16.3306C14.84 8.35547 14.375 9.28055 14.375 10.2305V12.4805H17.7031L17.1711 15.9492H14.375V24.3347C20.1118 23.4345 24.5 18.4699 24.5 12.4805Z" fill="#1D1D1D"/>
<path d="M17.1711 15.9492L17.7031 12.4805H14.375V10.2305C14.375 9.28148 14.84 8.35547 16.3306 8.35547H17.8438V5.40234C17.8438 5.40234 16.4705 5.16797 15.1576 5.16797C12.4166 5.16797 10.625 6.82922 10.625 9.83672V12.4805H7.57812V15.9492H10.625V24.3347C11.8674 24.5291 13.1326 24.5291 14.375 24.3347V15.9492H17.1711Z" fill="white"/>
</g>
<defs>
<clipPath id="clip0_1_150">
<rect width="24" height="24" fill="white" transform="translate(0.5 0.480469)"/>
</clipPath>
</defs>
</svg>
