<svg width="25" height="25" viewBox="0 0 25 25" fill="none" xmlns="http://www.w3.org/2000/svg">
<g clip-path="url(#clip0_1_151)">
<path d="M12.5 2.64141C15.7063 2.64141 16.0859 2.65547 17.3469 2.71172C18.5188 2.76328 19.1516 2.96016 19.5734 3.12422C20.1313 3.33984 20.5344 3.60234 20.9516 4.01953C21.3734 4.44141 21.6313 4.83984 21.8469 5.39766C22.0109 5.81953 22.2078 6.45703 22.2594 7.62422C22.3156 8.88984 22.3297 9.26953 22.3297 12.4711C22.3297 15.6773 22.3156 16.057 22.2594 17.318C22.2078 18.4898 22.0109 19.1227 21.8469 19.5445C21.6313 20.1023 21.3688 20.5055 20.9516 20.9227C20.5297 21.3445 20.1313 21.6023 19.5734 21.818C19.1516 21.982 18.5141 22.1789 17.3469 22.2305C16.0813 22.2867 15.7016 22.3008 12.5 22.3008C9.29375 22.3008 8.91406 22.2867 7.65313 22.2305C6.48125 22.1789 5.84844 21.982 5.42656 21.818C4.86875 21.6023 4.46563 21.3398 4.04844 20.9227C3.62656 20.5008 3.36875 20.1023 3.15313 19.5445C2.98906 19.1227 2.79219 18.4852 2.74063 17.318C2.68438 16.0523 2.67031 15.6727 2.67031 12.4711C2.67031 9.26484 2.68438 8.88516 2.74063 7.62422C2.79219 6.45234 2.98906 5.81953 3.15313 5.39766C3.36875 4.83984 3.63125 4.43672 4.04844 4.01953C4.47031 3.59766 4.86875 3.33984 5.42656 3.12422C5.84844 2.96016 6.48594 2.76328 7.65313 2.71172C8.91406 2.65547 9.29375 2.64141 12.5 2.64141ZM12.5 0.480469C9.24219 0.480469 8.83438 0.494531 7.55469 0.550781C6.27969 0.607031 5.40313 0.813281 4.64375 1.10859C3.85156 1.41797 3.18125 1.82578 2.51563 2.49609C1.84531 3.16172 1.4375 3.83203 1.12813 4.61953C0.832812 5.38359 0.626563 6.25547 0.570313 7.53047C0.514063 8.81484 0.5 9.22266 0.5 12.4805C0.5 15.7383 0.514063 16.1461 0.570313 17.4258C0.626563 18.7008 0.832812 19.5773 1.12813 20.3367C1.4375 21.1289 1.84531 21.7992 2.51563 22.4648C3.18125 23.1305 3.85156 23.543 4.63906 23.8477C5.40313 24.143 6.275 24.3492 7.55 24.4055C8.82969 24.4617 9.2375 24.4758 12.4953 24.4758C15.7531 24.4758 16.1609 24.4617 17.4406 24.4055C18.7156 24.3492 19.5922 24.143 20.3516 23.8477C21.1391 23.543 21.8094 23.1305 22.475 22.4648C23.1406 21.7992 23.5531 21.1289 23.8578 20.3414C24.1531 19.5773 24.3594 18.7055 24.4156 17.4305C24.4719 16.1508 24.4859 15.743 24.4859 12.4852C24.4859 9.22734 24.4719 8.81953 24.4156 7.53984C24.3594 6.26484 24.1531 5.38828 23.8578 4.62891C23.5625 3.83203 23.1547 3.16172 22.4844 2.49609C21.8188 1.83047 21.1484 1.41797 20.3609 1.11328C19.5969 0.817969 18.725 0.611719 17.45 0.555469C16.1656 0.494531 15.7578 0.480469 12.5 0.480469Z" fill="#1D1D1D"/>
<path d="M12.5 6.31641C9.09688 6.31641 6.33594 9.07734 6.33594 12.4805C6.33594 15.8836 9.09688 18.6445 12.5 18.6445C15.9031 18.6445 18.6641 15.8836 18.6641 12.4805C18.6641 9.07734 15.9031 6.31641 12.5 6.31641ZM12.5 16.4789C10.2922 16.4789 8.50156 14.6883 8.50156 12.4805C8.50156 10.2727 10.2922 8.48203 12.5 8.48203C14.7078 8.48203 16.4984 10.2727 16.4984 12.4805C16.4984 14.6883 14.7078 16.4789 12.5 16.4789Z" fill="#1D1D1D"/>
<path d="M20.3469 6.07261C20.3469 6.86949 19.7 7.51168 18.9078 7.51168C18.1109 7.51168 17.4688 6.8648 17.4688 6.07261C17.4688 5.27573 18.1156 4.63354 18.9078 4.63354C19.7 4.63354 20.3469 5.28042 20.3469 6.07261Z" fill="#1D1D1D"/>
</g>
<defs>
<clipPath id="clip0_1_151">
<rect width="24" height="24" fill="white" transform="translate(0.5 0.480469)"/>
</clipPath>
</defs>
</svg>
