<svg width="24" height="25" viewBox="0 0 24 25" fill="none" xmlns="http://www.w3.org/2000/svg">
<path d="M8.46501 21.035C6.44285 21.035 4.61979 19.8169 3.84582 17.9488C3.07184 16.0806 3.49935 13.9301 4.92901 12.5L7.05101 10.378L8.46501 11.792L6.34401 13.913C5.58607 14.671 5.29007 15.7757 5.56749 16.811C5.84492 17.8464 6.65363 18.6551 7.68899 18.9325C8.72435 19.21 9.82907 18.914 10.587 18.156L12.708 16.035L14.122 17.45L12.001 19.571C11.0651 20.5116 9.79187 21.0387 8.46501 21.035ZM9.17201 16.742L7.75801 15.328L14.829 8.25702L16.243 9.67102L9.17301 16.741L9.17201 16.742ZM16.951 14.621L15.536 13.207L17.657 11.086C18.4253 10.3303 18.7292 9.22069 18.4533 8.179C18.1773 7.13732 17.3638 6.32367 16.3222 6.04746C15.2806 5.77126 14.1709 6.07494 13.415 6.84302L11.293 8.96402L9.87901 7.55002L12.001 5.42802C13.9561 3.48999 17.11 3.49689 19.0566 5.44347C21.0031 7.39005 21.01 10.5439 19.072 12.499L16.951 14.62V14.621Z" fill="#DADADA"/>
</svg>
