<svg width="25" height="25" viewBox="0 0 25 25" fill="none" xmlns="http://www.w3.org/2000/svg">
<g clip-path="url(#clip0_1_153)">
<path d="M12.5 24.4805C19.1274 24.4805 24.5 19.1079 24.5 12.4805C24.5 5.85305 19.1274 0.480469 12.5 0.480469C5.87258 0.480469 0.5 5.85305 0.5 12.4805C0.5 19.1079 5.87258 24.4805 12.5 24.4805Z" fill="white"/>
<path d="M12.5 0.480469C5.87284 0.480469 0.5 5.85331 0.5 12.4805C0.5 17.5669 3.66049 21.9126 8.12469 23.6607C8.01605 22.7126 7.92716 21.2508 8.1642 20.2138C8.38148 19.2755 9.56667 14.2484 9.56667 14.2484C9.56667 14.2484 9.21111 13.5274 9.21111 12.4706C9.21111 10.8015 10.179 9.55701 11.384 9.55701C12.4111 9.55701 12.9049 10.3274 12.9049 11.2459C12.9049 12.2731 12.2531 13.8138 11.9074 15.2459C11.621 16.441 12.5099 17.4187 13.6852 17.4187C15.8185 17.4187 17.458 15.1669 17.458 11.9274C17.458 9.05331 15.3938 7.04837 12.4407 7.04837C9.02346 7.04837 7.01852 9.60639 7.01852 12.2533C7.01852 13.2805 7.41358 14.3866 7.90741 14.9891C8.00617 15.1076 8.01605 15.2163 7.98642 15.3348C7.89753 15.7101 7.69012 16.5299 7.65062 16.6978C7.60123 16.915 7.47284 16.9644 7.24568 16.8558C5.74444 16.1545 4.80617 13.9718 4.80617 12.2039C4.80617 8.42121 7.55185 4.94467 12.737 4.94467C16.8951 4.94467 20.1346 7.90763 20.1346 11.878C20.1346 16.0163 17.5272 19.3447 13.9123 19.3447C12.6975 19.3447 11.5519 18.7126 11.1667 17.962C11.1667 17.962 10.5642 20.2533 10.416 20.8163C10.1494 21.8632 9.41852 23.1669 8.92469 23.9669C10.0506 24.3126 11.2358 24.5002 12.4802 24.5002C19.1074 24.5002 24.4802 19.1274 24.4802 12.5002C24.5 5.85331 19.1272 0.480469 12.5 0.480469Z" fill="#1D1D1D"/>
</g>
<defs>
<clipPath id="clip0_1_153">
<rect width="24" height="24" fill="white" transform="translate(0.5 0.480469)"/>
</clipPath>
</defs>
</svg>
