<svg width="25" height="25" viewBox="0 0 25 25" fill="none" xmlns="http://www.w3.org/2000/svg">
<g clip-path="url(#clip0_1_152)">
<path d="M24.022 6.70494C23.8863 6.19436 23.6189 5.72836 23.2465 5.3536C22.8741 4.97883 22.4099 4.70844 21.9002 4.56949C20.0238 4.06494 12.5238 4.06494 12.5238 4.06494C12.5238 4.06494 5.0238 4.06494 3.14744 4.56949C2.63773 4.70844 2.17346 4.97883 1.80109 5.3536C1.42872 5.72836 1.16131 6.19436 1.02562 6.70494C0.523804 8.58949 0.523804 12.5195 0.523804 12.5195C0.523804 12.5195 0.523804 16.4495 1.02562 18.334C1.16131 18.8446 1.42872 19.3106 1.80109 19.6854C2.17346 20.0601 2.63773 20.3305 3.14744 20.4695C5.0238 20.974 12.5238 20.974 12.5238 20.974C12.5238 20.974 20.0238 20.974 21.9002 20.4695C22.4099 20.3305 22.8741 20.0601 23.2465 19.6854C23.6189 19.3106 23.8863 18.8446 24.022 18.334C24.5238 16.4495 24.5238 12.5195 24.5238 12.5195C24.5238 12.5195 24.5238 8.58949 24.022 6.70494Z" fill="#1D1D1D"/>
<path d="M10.0693 16.0882V8.95093L16.342 12.5196L10.0693 16.0882Z" fill="#FEFEFE"/>
</g>
<defs>
<clipPath id="clip0_1_152">
<rect width="24" height="24" fill="white" transform="translate(0.5 0.519531)"/>
</clipPath>
</defs>
</svg>
