<svg width="102" height="33" viewBox="0 0 102 33" fill="none" xmlns="http://www.w3.org/2000/svg">
<path d="M55.6973 14.5V7.25391H57.3311V8.51172H57.3652C57.5247 8.08333 57.7868 7.74382 58.1514 7.49316C58.516 7.24251 58.9421 7.11719 59.4297 7.11719C59.9401 7.11719 60.3708 7.24479 60.7217 7.5C61.0771 7.75065 61.321 8.1084 61.4531 8.57324H61.4941C61.6673 8.12663 61.9544 7.77344 62.3555 7.51367C62.7611 7.24935 63.2259 7.11719 63.75 7.11719C64.4655 7.11719 65.0374 7.33822 65.4658 7.78027C65.8988 8.22233 66.1152 8.80566 66.1152 9.53027V14.5H64.4131V9.94727C64.4131 9.50065 64.2992 9.15658 64.0713 8.91504C63.848 8.6735 63.529 8.55273 63.1143 8.55273C62.7041 8.55273 62.3714 8.68945 62.1162 8.96289C61.861 9.23633 61.7334 9.58952 61.7334 10.0225V14.5H60.0791V9.8584C60.0791 9.45736 59.9629 9.14062 59.7305 8.9082C59.5026 8.67122 59.1904 8.55273 58.7939 8.55273C58.3838 8.55273 58.0488 8.69629 57.7891 8.9834C57.5293 9.26595 57.3994 9.62598 57.3994 10.0635V14.5H55.6973ZM67.5234 14.5V7.25391H69.2256V14.5H67.5234ZM69.041 6.03711C68.8587 6.21484 68.6354 6.30371 68.3711 6.30371C68.1068 6.30371 67.8835 6.21484 67.7012 6.03711C67.5189 5.85482 67.4277 5.63607 67.4277 5.38086C67.4277 5.12109 67.5189 4.90234 67.7012 4.72461C67.8835 4.54232 68.1068 4.45117 68.3711 4.45117C68.6354 4.45117 68.8587 4.54232 69.041 4.72461C69.2279 4.90234 69.3213 5.12109 69.3213 5.38086C69.3213 5.63607 69.2279 5.85482 69.041 6.03711ZM70.6543 14.5V7.25391H72.2881V8.51855H72.3223C72.4453 8.0765 72.6572 7.7347 72.958 7.49316C73.2633 7.25163 73.6302 7.13086 74.0586 7.13086C74.209 7.13086 74.3867 7.15365 74.5918 7.19922V8.7373C74.4232 8.6735 74.193 8.6416 73.9014 8.6416C73.4183 8.6416 73.04 8.78743 72.7666 9.0791C72.4932 9.37077 72.3564 9.77181 72.3564 10.2822V14.5H70.6543ZM77.9482 13.3311C78.4359 13.3311 78.846 13.1875 79.1787 12.9004C79.516 12.6087 79.6846 12.2464 79.6846 11.8135V11.2598L78.0098 11.3623C77.5996 11.3896 77.2806 11.4922 77.0527 11.6699C76.8294 11.8431 76.7178 12.0732 76.7178 12.3604C76.7178 12.6566 76.8294 12.8936 77.0527 13.0713C77.2806 13.2445 77.5791 13.3311 77.9482 13.3311ZM77.4355 14.6162C76.7292 14.6162 76.1481 14.4134 75.6924 14.0078C75.2412 13.6022 75.0156 13.0758 75.0156 12.4287C75.0156 11.7861 75.2526 11.278 75.7266 10.9043C76.2051 10.5306 76.8864 10.3164 77.7705 10.2617L79.6846 10.1523V9.63281C79.6846 9.25456 79.5638 8.96061 79.3223 8.75098C79.0853 8.54134 78.7549 8.43652 78.3311 8.43652C77.9346 8.43652 77.611 8.52539 77.3604 8.70312C77.1097 8.88086 76.957 9.1224 76.9023 9.42773H75.3232C75.3597 8.73958 75.6536 8.18132 76.2051 7.75293C76.7611 7.31999 77.4925 7.10352 78.3994 7.10352C79.2972 7.10352 80.015 7.32227 80.5527 7.75977C81.0951 8.19727 81.3662 8.7806 81.3662 9.50977V14.5H79.7256V13.3447H79.6914C79.4863 13.7321 79.1764 14.042 78.7617 14.2744C78.347 14.5023 77.9049 14.6162 77.4355 14.6162ZM83.2119 5.55859H84.9141V7.25391H86.2812V8.56641H84.9141V12.333C84.9141 12.6292 84.9847 12.848 85.126 12.9893C85.2673 13.1305 85.4883 13.2012 85.7891 13.2012C85.9896 13.2012 86.1514 13.1898 86.2744 13.167V14.4658C86.0693 14.5114 85.7754 14.5342 85.3926 14.5342C84.6087 14.5342 84.0482 14.3838 83.7109 14.083C83.3783 13.7822 83.2119 13.2786 83.2119 12.5723V8.56641H82.1729V7.25391H83.2119V5.55859ZM90.4307 8.42285C89.9567 8.42285 89.5602 8.58691 89.2412 8.91504C88.9268 9.23861 88.7513 9.6556 88.7148 10.166H92.0986C92.0804 9.65104 91.9186 9.23177 91.6133 8.9082C91.3079 8.58464 90.9137 8.42285 90.4307 8.42285ZM92.1055 12.333H93.6982C93.5889 13.0212 93.2402 13.5794 92.6523 14.0078C92.0645 14.4316 91.3444 14.6436 90.4922 14.6436C89.4076 14.6436 88.5553 14.3109 87.9355 13.6455C87.3158 12.9756 87.0059 12.0618 87.0059 10.9043C87.0059 9.75586 87.3135 8.83529 87.9287 8.14258C88.5485 7.44987 89.3802 7.10352 90.4238 7.10352C91.4492 7.10352 92.2627 7.43392 92.8643 8.09473C93.4658 8.75098 93.7666 9.63053 93.7666 10.7334V11.2871H88.7012V11.3896C88.7012 11.973 88.8652 12.4424 89.1934 12.7979C89.526 13.1533 89.9704 13.3311 90.5264 13.3311C90.9183 13.3311 91.2555 13.2422 91.5381 13.0645C91.8252 12.8822 92.0143 12.6383 92.1055 12.333ZM97.5742 11.9023H97.54L96.0361 14.5H94.2246L96.5625 10.8838L94.2451 7.25391H96.1592L97.6221 9.79688H97.6562L99.0986 7.25391H100.965L98.6338 10.8359L100.938 14.5H99.0781L97.5742 11.9023Z" fill="#161616"/>
<path d="M55.7451 27.5V17.6357H57.4268V21.498H57.4609C57.6569 21.056 57.9508 20.7165 58.3428 20.4795C58.7347 20.238 59.2041 20.1172 59.751 20.1172C60.5439 20.1172 61.1637 20.361 61.6104 20.8486C62.0615 21.3317 62.2871 21.9925 62.2871 22.8311V27.5H60.585V23.1797C60.585 22.6647 60.4574 22.266 60.2021 21.9834C59.9515 21.7008 59.5824 21.5596 59.0947 21.5596C58.5843 21.5596 58.181 21.7214 57.8848 22.0449C57.5931 22.3685 57.4473 22.7992 57.4473 23.3369V27.5H55.7451ZM69.417 26.6387C68.7835 27.3086 67.9313 27.6436 66.8604 27.6436C65.7894 27.6436 64.9372 27.3086 64.3037 26.6387C63.6702 25.9642 63.3535 25.0436 63.3535 23.877C63.3535 22.7148 63.6725 21.7965 64.3105 21.1221C64.9486 20.443 65.7985 20.1035 66.8604 20.1035C67.9268 20.1035 68.7767 20.443 69.4102 21.1221C70.0482 21.7965 70.3672 22.7148 70.3672 23.877C70.3672 25.0436 70.0505 25.9642 69.417 26.6387ZM65.5615 25.6611C65.8805 26.085 66.3135 26.2969 66.8604 26.2969C67.4072 26.2969 67.8402 26.085 68.1592 25.6611C68.4782 25.2373 68.6377 24.6426 68.6377 23.877C68.6377 23.1159 68.4782 22.5234 68.1592 22.0996C67.8402 21.6712 67.4072 21.457 66.8604 21.457C66.318 21.457 65.8851 21.6712 65.5615 22.0996C65.2425 22.5234 65.083 23.1159 65.083 23.877C65.083 24.6426 65.2425 25.2373 65.5615 25.6611ZM77.8867 20.2539V27.5H76.2461V26.2422H76.2119C75.8109 27.1673 75.0726 27.6299 73.9971 27.6299C73.2087 27.6299 72.582 27.3906 72.1172 26.9121C71.6569 26.429 71.4268 25.7705 71.4268 24.9365V20.2539H73.1289V24.5947C73.1289 25.1143 73.252 25.5107 73.498 25.7842C73.7487 26.0576 74.1133 26.1943 74.5918 26.1943C75.0794 26.1943 75.4668 26.0348 75.7539 25.7158C76.041 25.3968 76.1846 24.973 76.1846 24.4443V20.2539H77.8867ZM79.1514 22.332C79.1514 21.6667 79.4202 21.1289 79.958 20.7188C80.4958 20.3086 81.2044 20.1035 82.084 20.1035C82.9316 20.1035 83.6198 20.3132 84.1484 20.7324C84.6816 21.1471 84.9596 21.6895 84.9824 22.3594H83.3965C83.3691 22.0449 83.237 21.7988 83 21.6211C82.763 21.4434 82.4463 21.3545 82.0498 21.3545C81.6761 21.3545 81.3753 21.4365 81.1475 21.6006C80.9196 21.7601 80.8057 21.972 80.8057 22.2363C80.8057 22.6374 81.152 22.9222 81.8447 23.0908L83.1367 23.3779C83.8613 23.5465 84.3786 23.7835 84.6885 24.0889C84.9984 24.3942 85.1533 24.8158 85.1533 25.3535C85.1533 26.0371 84.8662 26.5908 84.292 27.0146C83.7178 27.4339 82.9727 27.6436 82.0566 27.6436C81.1543 27.6436 80.4274 27.4385 79.876 27.0283C79.3291 26.6136 79.026 26.0599 78.9668 25.3672H80.6416C80.6917 25.6999 80.8421 25.9551 81.0928 26.1328C81.348 26.3105 81.6898 26.3994 82.1182 26.3994C82.5329 26.3994 82.8587 26.3219 83.0957 26.167C83.3372 26.0075 83.458 25.7933 83.458 25.5244C83.458 25.3148 83.3828 25.1484 83.2324 25.0254C83.0866 24.8978 82.8382 24.7884 82.4873 24.6973L81.168 24.3896C79.8236 24.0752 79.1514 23.3893 79.1514 22.332ZM89.3643 21.4229C88.8903 21.4229 88.4938 21.5869 88.1748 21.915C87.8604 22.2386 87.6849 22.6556 87.6484 23.166H91.0322C91.014 22.651 90.8522 22.2318 90.5469 21.9082C90.2415 21.5846 89.8473 21.4229 89.3643 21.4229ZM91.0391 25.333H92.6318C92.5225 26.0212 92.1738 26.5794 91.5859 27.0078C90.998 27.4316 90.278 27.6436 89.4258 27.6436C88.3411 27.6436 87.4889 27.3109 86.8691 26.6455C86.2493 25.9756 85.9395 25.0618 85.9395 23.9043C85.9395 22.7559 86.2471 21.8353 86.8623 21.1426C87.4821 20.4499 88.3138 20.1035 89.3574 20.1035C90.3828 20.1035 91.1963 20.4339 91.7979 21.0947C92.3994 21.751 92.7002 22.6305 92.7002 23.7334V24.2871H87.6348V24.3896C87.6348 24.973 87.7988 25.4424 88.127 25.7979C88.4596 26.1533 88.904 26.3311 89.46 26.3311C89.8519 26.3311 90.1891 26.2422 90.4717 26.0645C90.7588 25.8822 90.9479 25.6383 91.0391 25.333Z" fill="#161616"/>
<path fill-rule="evenodd" clip-rule="evenodd" d="M3.38644 18.7148C3.83984 18.7148 4.20739 19.0824 4.20739 19.5358L4.2074 30.8581H26.852V19.5358C26.852 19.0824 27.2195 18.7148 27.6729 18.7148C28.1263 18.7148 28.4939 19.0824 28.4939 19.5358V31.679C28.4939 32.1324 28.1263 32.5 27.6729 32.5H3.38645C2.93305 32.5 2.5655 32.1324 2.5655 31.679L2.56549 19.5358C2.56549 19.0824 2.93304 18.7148 3.38644 18.7148Z" fill="#161616"/>
<path fill-rule="evenodd" clip-rule="evenodd" d="M15.2912 0.740451C15.6118 0.41985 16.1316 0.41985 16.4522 0.740451L31.503 15.7912C31.7378 16.026 31.808 16.3791 31.681 16.6859C31.5539 16.9927 31.2545 17.1927 30.9225 17.1927H12.5879V27.4375H18.8135V20.2712H15.8717C15.4183 20.2712 15.0508 19.9037 15.0508 19.4503C15.0508 18.9969 15.4183 18.6293 15.8717 18.6293H19.6344C20.0878 18.6293 20.4554 18.9969 20.4554 19.4503V28.2584C20.4554 28.7118 20.0878 29.0794 19.6344 29.0794H11.767C11.3136 29.0794 10.946 28.7118 10.946 28.2584V16.3717C10.946 15.9183 11.3136 15.5508 11.767 15.5508H28.9405L15.8717 2.48195L1.40145 16.9522C1.08085 17.2728 0.561053 17.2728 0.240451 16.9522C-0.0801504 16.6316 -0.0801504 16.1118 0.240451 15.7912L15.2912 0.740451Z" fill="#161616"/>
<line x1="44.5" y1="0.5" x2="44.5" y2="32.5" stroke="#161616"/>
</svg>
