<svg width="102" height="33" viewBox="0 0 102 33" fill="none" xmlns="http://www.w3.org/2000/svg">
<line x1="44.5" y1="0.279297" x2="44.5" y2="32.2793" stroke="white"/>
<path d="M55.6973 14.4082V7.16211H57.3311V8.41992H57.3652C57.5247 7.99154 57.7868 7.65202 58.1514 7.40137C58.516 7.15072 58.9421 7.02539 59.4297 7.02539C59.9401 7.02539 60.3708 7.15299 60.7217 7.4082C61.0771 7.65885 61.321 8.0166 61.4531 8.48145H61.4941C61.6673 8.03483 61.9544 7.68164 62.3555 7.42188C62.7611 7.15755 63.2259 7.02539 63.75 7.02539C64.4655 7.02539 65.0374 7.24642 65.4658 7.68848C65.8988 8.13053 66.1152 8.71387 66.1152 9.43848V14.4082H64.4131V9.85547C64.4131 9.40885 64.2992 9.06478 64.0713 8.82324C63.848 8.58171 63.529 8.46094 63.1143 8.46094C62.7041 8.46094 62.3714 8.59766 62.1162 8.87109C61.861 9.14453 61.7334 9.49772 61.7334 9.93066V14.4082H60.0791V9.7666C60.0791 9.36556 59.9629 9.04883 59.7305 8.81641C59.5026 8.57943 59.1904 8.46094 58.7939 8.46094C58.3838 8.46094 58.0488 8.60449 57.7891 8.8916C57.5293 9.17415 57.3994 9.53418 57.3994 9.97168V14.4082H55.6973ZM67.5234 14.4082V7.16211H69.2256V14.4082H67.5234ZM69.041 5.94531C68.8587 6.12305 68.6354 6.21191 68.3711 6.21191C68.1068 6.21191 67.8835 6.12305 67.7012 5.94531C67.5189 5.76302 67.4277 5.54427 67.4277 5.28906C67.4277 5.0293 67.5189 4.81055 67.7012 4.63281C67.8835 4.45052 68.1068 4.35938 68.3711 4.35938C68.6354 4.35938 68.8587 4.45052 69.041 4.63281C69.2279 4.81055 69.3213 5.0293 69.3213 5.28906C69.3213 5.54427 69.2279 5.76302 69.041 5.94531ZM70.6543 14.4082V7.16211H72.2881V8.42676H72.3223C72.4453 7.9847 72.6572 7.6429 72.958 7.40137C73.2633 7.15983 73.6302 7.03906 74.0586 7.03906C74.209 7.03906 74.3867 7.06185 74.5918 7.10742V8.64551C74.4232 8.58171 74.193 8.5498 73.9014 8.5498C73.4183 8.5498 73.04 8.69564 72.7666 8.9873C72.4932 9.27897 72.3564 9.68001 72.3564 10.1904V14.4082H70.6543ZM77.9482 13.2393C78.4359 13.2393 78.846 13.0957 79.1787 12.8086C79.516 12.5169 79.6846 12.1546 79.6846 11.7217V11.168L78.0098 11.2705C77.5996 11.2979 77.2806 11.4004 77.0527 11.5781C76.8294 11.7513 76.7178 11.9814 76.7178 12.2686C76.7178 12.5648 76.8294 12.8018 77.0527 12.9795C77.2806 13.1527 77.5791 13.2393 77.9482 13.2393ZM77.4355 14.5244C76.7292 14.5244 76.1481 14.3216 75.6924 13.916C75.2412 13.5104 75.0156 12.984 75.0156 12.3369C75.0156 11.6943 75.2526 11.1862 75.7266 10.8125C76.2051 10.4388 76.8864 10.2246 77.7705 10.1699L79.6846 10.0605V9.54102C79.6846 9.16276 79.5638 8.86882 79.3223 8.65918C79.0853 8.44954 78.7549 8.34473 78.3311 8.34473C77.9346 8.34473 77.611 8.43359 77.3604 8.61133C77.1097 8.78906 76.957 9.0306 76.9023 9.33594H75.3232C75.3597 8.64779 75.6536 8.08952 76.2051 7.66113C76.7611 7.22819 77.4925 7.01172 78.3994 7.01172C79.2972 7.01172 80.015 7.23047 80.5527 7.66797C81.0951 8.10547 81.3662 8.6888 81.3662 9.41797V14.4082H79.7256V13.2529H79.6914C79.4863 13.6403 79.1764 13.9502 78.7617 14.1826C78.347 14.4105 77.9049 14.5244 77.4355 14.5244ZM83.2119 5.4668H84.9141V7.16211H86.2812V8.47461H84.9141V12.2412C84.9141 12.5374 84.9847 12.7562 85.126 12.8975C85.2673 13.0387 85.4883 13.1094 85.7891 13.1094C85.9896 13.1094 86.1514 13.098 86.2744 13.0752V14.374C86.0693 14.4196 85.7754 14.4424 85.3926 14.4424C84.6087 14.4424 84.0482 14.292 83.7109 13.9912C83.3783 13.6904 83.2119 13.1868 83.2119 12.4805V8.47461H82.1729V7.16211H83.2119V5.4668ZM90.4307 8.33105C89.9567 8.33105 89.5602 8.49512 89.2412 8.82324C88.9268 9.14681 88.7513 9.5638 88.7148 10.0742H92.0986C92.0804 9.55924 91.9186 9.13997 91.6133 8.81641C91.3079 8.49284 90.9137 8.33105 90.4307 8.33105ZM92.1055 12.2412H93.6982C93.5889 12.9294 93.2402 13.4876 92.6523 13.916C92.0645 14.3398 91.3444 14.5518 90.4922 14.5518C89.4076 14.5518 88.5553 14.2191 87.9355 13.5537C87.3158 12.8838 87.0059 11.9701 87.0059 10.8125C87.0059 9.66406 87.3135 8.74349 87.9287 8.05078C88.5485 7.35807 89.3802 7.01172 90.4238 7.01172C91.4492 7.01172 92.2627 7.34212 92.8643 8.00293C93.4658 8.65918 93.7666 9.53874 93.7666 10.6416V11.1953H88.7012V11.2979C88.7012 11.8812 88.8652 12.3506 89.1934 12.7061C89.526 13.0615 89.9704 13.2393 90.5264 13.2393C90.9183 13.2393 91.2555 13.1504 91.5381 12.9727C91.8252 12.7904 92.0143 12.5465 92.1055 12.2412ZM97.5742 11.8105H97.54L96.0361 14.4082H94.2246L96.5625 10.792L94.2451 7.16211H96.1592L97.6221 9.70508H97.6562L99.0986 7.16211H100.965L98.6338 10.7441L100.938 14.4082H99.0781L97.5742 11.8105Z" fill="white"/>
<path d="M55.7451 27.4082V17.5439H57.4268V21.4062H57.4609C57.6569 20.9642 57.9508 20.6247 58.3428 20.3877C58.7347 20.1462 59.2041 20.0254 59.751 20.0254C60.5439 20.0254 61.1637 20.2692 61.6104 20.7568C62.0615 21.2399 62.2871 21.9007 62.2871 22.7393V27.4082H60.585V23.0879C60.585 22.5729 60.4574 22.1742 60.2021 21.8916C59.9515 21.609 59.5824 21.4678 59.0947 21.4678C58.5843 21.4678 58.181 21.6296 57.8848 21.9531C57.5931 22.2767 57.4473 22.7074 57.4473 23.2451V27.4082H55.7451ZM69.417 26.5469C68.7835 27.2168 67.9313 27.5518 66.8604 27.5518C65.7894 27.5518 64.9372 27.2168 64.3037 26.5469C63.6702 25.8724 63.3535 24.9518 63.3535 23.7852C63.3535 22.623 63.6725 21.7048 64.3105 21.0303C64.9486 20.3512 65.7985 20.0117 66.8604 20.0117C67.9268 20.0117 68.7767 20.3512 69.4102 21.0303C70.0482 21.7048 70.3672 22.623 70.3672 23.7852C70.3672 24.9518 70.0505 25.8724 69.417 26.5469ZM65.5615 25.5693C65.8805 25.9932 66.3135 26.2051 66.8604 26.2051C67.4072 26.2051 67.8402 25.9932 68.1592 25.5693C68.4782 25.1455 68.6377 24.5508 68.6377 23.7852C68.6377 23.0241 68.4782 22.4316 68.1592 22.0078C67.8402 21.5794 67.4072 21.3652 66.8604 21.3652C66.318 21.3652 65.8851 21.5794 65.5615 22.0078C65.2425 22.4316 65.083 23.0241 65.083 23.7852C65.083 24.5508 65.2425 25.1455 65.5615 25.5693ZM77.8867 20.1621V27.4082H76.2461V26.1504H76.2119C75.8109 27.0755 75.0726 27.5381 73.9971 27.5381C73.2087 27.5381 72.582 27.2988 72.1172 26.8203C71.6569 26.3372 71.4268 25.6787 71.4268 24.8447V20.1621H73.1289V24.5029C73.1289 25.0225 73.252 25.4189 73.498 25.6924C73.7487 25.9658 74.1133 26.1025 74.5918 26.1025C75.0794 26.1025 75.4668 25.943 75.7539 25.624C76.041 25.305 76.1846 24.8812 76.1846 24.3525V20.1621H77.8867ZM79.1514 22.2402C79.1514 21.5749 79.4202 21.0371 79.958 20.627C80.4958 20.2168 81.2044 20.0117 82.084 20.0117C82.9316 20.0117 83.6198 20.2214 84.1484 20.6406C84.6816 21.0553 84.9596 21.5977 84.9824 22.2676H83.3965C83.3691 21.9531 83.237 21.707 83 21.5293C82.763 21.3516 82.4463 21.2627 82.0498 21.2627C81.6761 21.2627 81.3753 21.3447 81.1475 21.5088C80.9196 21.6683 80.8057 21.8802 80.8057 22.1445C80.8057 22.5456 81.152 22.8304 81.8447 22.999L83.1367 23.2861C83.8613 23.4548 84.3786 23.6917 84.6885 23.9971C84.9984 24.3024 85.1533 24.724 85.1533 25.2617C85.1533 25.9453 84.8662 26.499 84.292 26.9229C83.7178 27.3421 82.9727 27.5518 82.0566 27.5518C81.1543 27.5518 80.4274 27.3467 79.876 26.9365C79.3291 26.5218 79.026 25.9681 78.9668 25.2754H80.6416C80.6917 25.6081 80.8421 25.8633 81.0928 26.041C81.348 26.2188 81.6898 26.3076 82.1182 26.3076C82.5329 26.3076 82.8587 26.2301 83.0957 26.0752C83.3372 25.9157 83.458 25.7015 83.458 25.4326C83.458 25.223 83.3828 25.0566 83.2324 24.9336C83.0866 24.806 82.8382 24.6966 82.4873 24.6055L81.168 24.2979C79.8236 23.9834 79.1514 23.2975 79.1514 22.2402ZM89.3643 21.3311C88.8903 21.3311 88.4938 21.4951 88.1748 21.8232C87.8604 22.1468 87.6849 22.5638 87.6484 23.0742H91.0322C91.014 22.5592 90.8522 22.14 90.5469 21.8164C90.2415 21.4928 89.8473 21.3311 89.3643 21.3311ZM91.0391 25.2412H92.6318C92.5225 25.9294 92.1738 26.4876 91.5859 26.916C90.998 27.3398 90.278 27.5518 89.4258 27.5518C88.3411 27.5518 87.4889 27.2191 86.8691 26.5537C86.2493 25.8838 85.9395 24.9701 85.9395 23.8125C85.9395 22.6641 86.2471 21.7435 86.8623 21.0508C87.4821 20.3581 88.3138 20.0117 89.3574 20.0117C90.3828 20.0117 91.1963 20.3421 91.7979 21.0029C92.3994 21.6592 92.7002 22.5387 92.7002 23.6416V24.1953H87.6348V24.2979C87.6348 24.8812 87.7988 25.3506 88.127 25.7061C88.4596 26.0615 88.904 26.2393 89.46 26.2393C89.8519 26.2393 90.1891 26.1504 90.4717 25.9727C90.7588 25.7904 90.9479 25.5465 91.0391 25.2412Z" fill="white"/>
<path fill-rule="evenodd" clip-rule="evenodd" d="M3.38644 18.623C3.83984 18.623 4.20739 18.9906 4.20739 19.444L4.2074 30.7663H26.852V19.444C26.852 18.9906 27.2195 18.623 27.6729 18.623C28.1263 18.623 28.4939 18.9906 28.4939 19.444V31.5872C28.4939 32.0406 28.1263 32.4082 27.6729 32.4082H3.38645C2.93305 32.4082 2.5655 32.0406 2.5655 31.5872L2.56549 19.444C2.56549 18.9906 2.93304 18.623 3.38644 18.623Z" fill="white"/>
<path fill-rule="evenodd" clip-rule="evenodd" d="M15.2912 0.648654C15.6118 0.328053 16.1316 0.328053 16.4522 0.648654L31.503 15.6994C31.7378 15.9342 31.808 16.2873 31.681 16.5941C31.5539 16.9009 31.2545 17.1009 30.9225 17.1009H12.5879V27.3457H18.8135V20.1794H15.8717C15.4183 20.1794 15.0508 19.8119 15.0508 19.3585C15.0508 18.9051 15.4183 18.5375 15.8717 18.5375H19.6344C20.0878 18.5375 20.4554 18.9051 20.4554 19.3585V28.1666C20.4554 28.62 20.0878 28.9876 19.6344 28.9876H11.767C11.3136 28.9876 10.946 28.62 10.946 28.1666V16.2799C10.946 15.8265 11.3136 15.459 11.767 15.459H28.9405L15.8717 2.39015L1.40145 16.8604C1.08085 17.181 0.561053 17.181 0.240451 16.8604C-0.0801504 16.5398 -0.0801504 16.02 0.240451 15.6994L15.2912 0.648654Z" fill="white"/>
</svg>
